<svg id="instagram_1_" data-name="instagram (1)" xmlns="http://www.w3.org/2000/svg" width="22.304" height="22.304" viewBox="0 0 22.304 22.304">
  <g id="Group_374" data-name="Group 374">
    <g id="Group_373" data-name="Group 373">
      <path id="Path_508" data-name="Path 508" d="M18.91,0H3.394A3.4,3.4,0,0,0,0,3.394V18.91A3.4,3.4,0,0,0,3.394,22.3V22.26c.4.044,1.116.044,2.424.044H18.91A3.4,3.4,0,0,0,22.3,18.91V3.394A3.4,3.4,0,0,0,18.91,0Zm2.424,18.91a2.427,2.427,0,0,1-2.424,2.424H3.394A2.427,2.427,0,0,1,.97,18.91V3.394A2.427,2.427,0,0,1,3.394.97H18.91a2.427,2.427,0,0,1,2.424,2.424Z" fill="#fff"/>
    </g>
  </g>
  <g id="Group_376" data-name="Group 376" transform="translate(3.879 3.879)">
    <g id="Group_375" data-name="Group 375">
      <path id="Path_509" data-name="Path 509" d="M71.273,64a7.273,7.273,0,1,0,7.273,7.273A7.281,7.281,0,0,0,71.273,64Zm0,13.577a6.3,6.3,0,1,1,6.3-6.3A6.311,6.311,0,0,1,71.273,77.577Z" transform="translate(-64 -64)" fill="#fff"/>
    </g>
  </g>
  <g id="Group_378" data-name="Group 378" transform="translate(6.743 6.766)">
    <g id="Group_377" data-name="Group 377">
      <path id="Path_510" data-name="Path 510" d="M115.635,111.624a4.387,4.387,0,1,0,4.387,4.387A4.392,4.392,0,0,0,115.635,111.624Zm0,7.8a3.417,3.417,0,1,1,3.417-3.417A3.421,3.421,0,0,1,115.635,119.428Z" transform="translate(-111.248 -111.624)" fill="#fff"/>
    </g>
  </g>
  <g id="Group_380" data-name="Group 380" transform="translate(17.024 2.764)">
    <g id="Group_379" data-name="Group 379" transform="translate(0 0)">
      <circle id="Ellipse_44" data-name="Ellipse 44" cx="1" cy="1" r="1" transform="translate(0.129 0.388)" fill="#fff"/>
    </g>
  </g>
</svg>
