<svg xmlns="http://www.w3.org/2000/svg" width="28.59" height="21.004" viewBox="0 0 28.59 21.004">
  <g id="youtube_2_" data-name="youtube (2)" transform="translate(0 -6.5)">
    <g id="Group_372" data-name="Group 372" transform="translate(0 6.5)">
      <path id="Path_505" data-name="Path 505" d="M22.9,6.5H5.685A5.7,5.7,0,0,0,0,12.2v9.6a5.7,5.7,0,0,0,5.685,5.7H22.9a5.7,5.7,0,0,0,5.685-5.7V12.2A5.7,5.7,0,0,0,22.9,6.5Zm4.518,15.3A4.532,4.532,0,0,1,22.9,26.338H5.685A4.533,4.533,0,0,1,1.167,21.8V12.2A4.533,4.533,0,0,1,5.685,7.667H22.9A4.533,4.533,0,0,1,27.423,12.2Z" transform="translate(0 -6.5)" fill="#fff"/>
      <path id="Path_506" data-name="Path 506" d="M26.962,20.7l-8.084-4.735a.583.583,0,0,0-.878.5v9.469a.583.583,0,0,0,.878.5l8.084-4.734a.584.584,0,0,0,0-1.008Zm-7.8,4.22V17.487L25.513,21.2Z" transform="translate(-7.498 -10.41)" fill="#fff"/>
    </g>
  </g>
</svg>
